# MagicaVoxel @ Ephtracy

# group
o 

# material
mtllib road3.mtl
usemtl palette

# normals
vn -1 0 0
vn 1 0 0
vn 0 0 1
vn 0 0 -1
vn 0 -1 0
vn 0 1 0

# texcoords
vt 0.904297 0.5
vt 0.958984 0.5
vt 0.994141 0.5

# verts
v 0 2.1 0
v 0 2.1 -0.2
v 0 2.1 -0.4
v 0 2.1 -0.6
v 0 2.1 -0.8
v 0 2.1 -1
v 0 2.2 0
v 0 2.2 -0.2
v 0 2.2 -0.4
v 0 2.2 -0.6
v 0 2.2 -0.8
v 0 2.2 -1
v 1 2.1 0
v 1 2.1 -1
v 1 2.2 0
v 1 2.2 -1
v 0 2.1 0
v 0 2.2 0
v 0.2 2.1 0
v 0.2 2.2 0
v 0.4 2.1 0
v 0.4 2.2 0
v 0.6 2.1 0
v 0.6 2.2 0
v 0.8 2.1 0
v 0.8 2.2 0
v 1 2.1 0
v 1 2.2 0
v 0 2.1 -1
v 0 2.2 -1
v 0.2 2.1 -1
v 0.2 2.2 -1
v 0.4 2.1 -1
v 0.4 2.2 -1
v 0.6 2.1 -1
v 0.6 2.2 -1
v 0.8 2.1 -1
v 0.8 2.2 -1
v 1 2.1 -1
v 1 2.2 -1
v 0 2.1 0
v 0.2 2.1 0
v 0.4 2.1 0
v 0.6 2.1 0
v 0.8 2.1 0
v 1 2.1 0
v 0.4 2.1 -0.1
v 0.6 2.1 -0.1
v 0 2.1 -0.2
v 0.2 2.1 -0.2
v 0.4 2.1 -0.3
v 0.6 2.1 -0.3
v 0 2.1 -0.4
v 0.1 2.1 -0.4
v 0.3 2.1 -0.4
v 0.4 2.1 -0.4
v 0.6 2.1 -0.4
v 0 2.1 -0.6
v 0.1 2.1 -0.6
v 0.3 2.1 -0.6
v 0.4 2.1 -0.6
v 0.6 2.1 -0.6
v 0.4 2.1 -0.7
v 0.6 2.1 -0.7
v 0 2.1 -0.8
v 0.2 2.1 -0.8
v 0.4 2.1 -0.9
v 0.6 2.1 -0.9
v 0 2.1 -1
v 0.2 2.1 -1
v 0.4 2.1 -1
v 0.6 2.1 -1
v 0.8 2.1 -1
v 1 2.1 -1
v 0 2.2 0
v 0.2 2.2 0
v 0.4 2.2 0
v 0.6 2.2 0
v 0.8 2.2 0
v 1 2.2 0
v 0.4 2.2 -0.1
v 0.6 2.2 -0.1
v 0 2.2 -0.2
v 0.2 2.2 -0.2
v 0.4 2.2 -0.3
v 0.6 2.2 -0.3
v 0 2.2 -0.4
v 0.1 2.2 -0.4
v 0.3 2.2 -0.4
v 0.4 2.2 -0.4
v 0.6 2.2 -0.4
v 0 2.2 -0.6
v 0.1 2.2 -0.6
v 0.3 2.2 -0.6
v 0.4 2.2 -0.6
v 0.6 2.2 -0.6
v 0.4 2.2 -0.7
v 0.6 2.2 -0.7
v 0 2.2 -0.8
v 0.2 2.2 -0.8
v 0.4 2.2 -0.9
v 0.6 2.2 -0.9
v 0 2.2 -1
v 0.2 2.2 -1
v 0.4 2.2 -1
v 0.6 2.2 -1
v 0.8 2.2 -1
v 1 2.2 -1

# faces
f 7/1/1 2/1/1 1/1/1
f 8/3/1 3/3/1 2/3/1
f 8/1/1 2/1/1 7/1/1
f 9/2/1 4/2/1 3/2/1
f 9/3/1 3/3/1 8/3/1
f 10/3/1 5/3/1 4/3/1
f 10/2/1 4/2/1 9/2/1
f 11/1/1 6/1/1 5/1/1
f 11/3/1 5/3/1 10/3/1
f 12/1/1 6/1/1 11/1/1
f 13/1/2 14/1/2 15/1/2
f 15/1/2 14/1/2 16/1/2
f 19/1/3 18/1/3 17/1/3
f 20/1/3 18/1/3 19/1/3
f 21/3/3 20/3/3 19/3/3
f 22/3/3 20/3/3 21/3/3
f 23/2/3 22/2/3 21/2/3
f 24/2/3 22/2/3 23/2/3
f 25/3/3 24/3/3 23/3/3
f 26/3/3 24/3/3 25/3/3
f 27/1/3 26/1/3 25/1/3
f 28/1/3 26/1/3 27/1/3
f 29/1/4 30/1/4 31/1/4
f 31/1/4 30/1/4 32/1/4
f 31/3/4 32/3/4 33/3/4
f 33/3/4 32/3/4 34/3/4
f 33/2/4 34/2/4 35/2/4
f 35/2/4 34/2/4 36/2/4
f 35/3/4 36/3/4 37/3/4
f 37/3/4 36/3/4 38/3/4
f 37/1/4 38/1/4 39/1/4
f 39/1/4 38/1/4 40/1/4
f 47/3/5 43/3/5 42/3/5
f 47/2/5 44/2/5 43/2/5
f 48/3/5 45/3/5 44/3/5
f 48/2/5 44/2/5 47/2/5
f 49/1/5 42/1/5 41/1/5
f 50/3/5 47/3/5 42/3/5
f 50/1/5 42/1/5 49/1/5
f 50/3/5 48/3/5 47/3/5
f 51/3/5 50/3/5 49/3/5
f 51/3/5 48/3/5 50/3/5
f 52/3/5 45/3/5 48/3/5
f 52/3/5 48/3/5 51/3/5
f 53/3/5 51/3/5 49/3/5
f 54/3/5 51/3/5 53/3/5
f 55/3/5 51/3/5 54/3/5
f 56/2/5 52/2/5 51/2/5
f 56/3/5 51/3/5 55/3/5
f 57/3/5 45/3/5 52/3/5
f 57/2/5 52/2/5 56/2/5
f 58/2/5 54/2/5 53/2/5
f 59/3/5 55/3/5 54/3/5
f 59/2/5 54/2/5 58/2/5
f 60/2/5 56/2/5 55/2/5
f 60/3/5 55/3/5 59/3/5
f 61/3/5 57/3/5 56/3/5
f 61/2/5 56/2/5 60/2/5
f 62/3/5 45/3/5 57/3/5
f 62/3/5 57/3/5 61/3/5
f 63/3/5 59/3/5 58/3/5
f 63/3/5 61/3/5 60/3/5
f 63/2/5 62/2/5 61/2/5
f 63/3/5 60/3/5 59/3/5
f 64/3/5 45/3/5 62/3/5
f 64/2/5 62/2/5 63/2/5
f 65/3/5 63/3/5 58/3/5
f 65/3/5 64/3/5 63/3/5
f 66/3/5 64/3/5 65/3/5
f 67/3/5 64/3/5 66/3/5
f 68/3/5 45/3/5 64/3/5
f 68/3/5 64/3/5 67/3/5
f 69/1/5 66/1/5 65/1/5
f 70/3/5 67/3/5 66/3/5
f 70/1/5 66/1/5 69/1/5
f 71/2/5 68/2/5 67/2/5
f 71/3/5 67/3/5 70/3/5
f 72/3/5 45/3/5 68/3/5
f 72/2/5 68/2/5 71/2/5
f 73/1/5 46/1/5 45/1/5
f 73/3/5 45/3/5 72/3/5
f 74/1/5 46/1/5 73/1/5
f 76/3/6 77/3/6 81/3/6
f 77/2/6 78/2/6 81/2/6
f 78/3/6 79/3/6 82/3/6
f 81/2/6 78/2/6 82/2/6
f 75/1/6 76/1/6 83/1/6
f 76/3/6 81/3/6 84/3/6
f 83/1/6 76/1/6 84/1/6
f 81/3/6 82/3/6 84/3/6
f 83/3/6 84/3/6 85/3/6
f 84/3/6 82/3/6 85/3/6
f 82/3/6 79/3/6 86/3/6
f 85/3/6 82/3/6 86/3/6
f 83/3/6 85/3/6 87/3/6
f 87/3/6 85/3/6 88/3/6
f 88/3/6 85/3/6 89/3/6
f 85/2/6 86/2/6 90/2/6
f 89/3/6 85/3/6 90/3/6
f 86/3/6 79/3/6 91/3/6
f 90/2/6 86/2/6 91/2/6
f 87/2/6 88/2/6 92/2/6
f 88/3/6 89/3/6 93/3/6
f 92/2/6 88/2/6 93/2/6
f 89/2/6 90/2/6 94/2/6
f 93/3/6 89/3/6 94/3/6
f 90/3/6 91/3/6 95/3/6
f 94/2/6 90/2/6 95/2/6
f 91/3/6 79/3/6 96/3/6
f 95/3/6 91/3/6 96/3/6
f 92/3/6 93/3/6 97/3/6
f 94/3/6 95/3/6 97/3/6
f 95/2/6 96/2/6 97/2/6
f 93/3/6 94/3/6 97/3/6
f 96/3/6 79/3/6 98/3/6
f 97/2/6 96/2/6 98/2/6
f 92/3/6 97/3/6 99/3/6
f 97/3/6 98/3/6 99/3/6
f 99/3/6 98/3/6 100/3/6
f 100/3/6 98/3/6 101/3/6
f 98/3/6 79/3/6 102/3/6
f 101/3/6 98/3/6 102/3/6
f 99/1/6 100/1/6 103/1/6
f 100/3/6 101/3/6 104/3/6
f 103/1/6 100/1/6 104/1/6
f 101/2/6 102/2/6 105/2/6
f 104/3/6 101/3/6 105/3/6
f 102/3/6 79/3/6 106/3/6
f 105/2/6 102/2/6 106/2/6
f 79/1/6 80/1/6 107/1/6
f 106/3/6 79/3/6 107/3/6
f 107/1/6 80/1/6 108/1/6
