# MagicaVoxel @ Ephtracy

# group
o 

# material
mtllib road2.mtl
usemtl palette

# normals
vn -1 0 0
vn 1 0 0
vn 0 0 1
vn 0 0 -1
vn 0 -1 0
vn 0 1 0

# texcoords
vt 0.904297 0.5
vt 0.958984 0.5
vt 0.994141 0.5

# verts
v 0 2.1 0
v 0 2.1 -0.2
v 0 2.1 -0.4
v 0 2.1 -0.6
v 0 2.1 -0.8
v 0 2.1 -1
v 0 2.2 0
v 0 2.2 -0.2
v 0 2.2 -0.4
v 0 2.2 -0.6
v 0 2.2 -0.8
v 0 2.2 -1
v 1 2.1 0
v 1 2.1 -0.2
v 1 2.1 -0.4
v 1 2.1 -0.6
v 1 2.1 -0.8
v 1 2.1 -1
v 1 2.2 0
v 1 2.2 -0.2
v 1 2.2 -0.4
v 1 2.2 -0.6
v 1 2.2 -0.8
v 1 2.2 -1
v 0 2.1 0
v 0 2.2 0
v 0.2 2.1 0
v 0.2 2.2 0
v 0.4 2.1 0
v 0.4 2.2 0
v 0.6 2.1 0
v 0.6 2.2 0
v 0.8 2.1 0
v 0.8 2.2 0
v 1 2.1 0
v 1 2.2 0
v 0 2.1 -1
v 0 2.2 -1
v 0.2 2.1 -1
v 0.2 2.2 -1
v 0.4 2.1 -1
v 0.4 2.2 -1
v 0.6 2.1 -1
v 0.6 2.2 -1
v 0.8 2.1 -1
v 0.8 2.2 -1
v 1 2.1 -1
v 1 2.2 -1
v 0 2.1 0
v 0.2 2.1 0
v 0.4 2.1 0
v 0.6 2.1 0
v 0.8 2.1 0
v 1 2.1 0
v 0.4 2.1 -0.1
v 0.6 2.1 -0.1
v 0 2.1 -0.2
v 0.2 2.1 -0.2
v 0.8 2.1 -0.2
v 1 2.1 -0.2
v 0.4 2.1 -0.3
v 0.6 2.1 -0.3
v 0 2.1 -0.4
v 0.1 2.1 -0.4
v 0.3 2.1 -0.4
v 0.4 2.1 -0.4
v 0.6 2.1 -0.4
v 0.7 2.1 -0.4
v 0.9 2.1 -0.4
v 1 2.1 -0.4
v 0 2.1 -0.6
v 0.1 2.1 -0.6
v 0.3 2.1 -0.6
v 0.4 2.1 -0.6
v 0.6 2.1 -0.6
v 0.7 2.1 -0.6
v 0.9 2.1 -0.6
v 1 2.1 -0.6
v 0.4 2.1 -0.7
v 0.6 2.1 -0.7
v 0 2.1 -0.8
v 0.2 2.1 -0.8
v 0.8 2.1 -0.8
v 1 2.1 -0.8
v 0.4 2.1 -0.9
v 0.6 2.1 -0.9
v 0 2.1 -1
v 0.2 2.1 -1
v 0.4 2.1 -1
v 0.6 2.1 -1
v 0.8 2.1 -1
v 1 2.1 -1
v 0 2.2 0
v 0.2 2.2 0
v 0.4 2.2 0
v 0.6 2.2 0
v 0.8 2.2 0
v 1 2.2 0
v 0.4 2.2 -0.1
v 0.6 2.2 -0.1
v 0 2.2 -0.2
v 0.2 2.2 -0.2
v 0.8 2.2 -0.2
v 1 2.2 -0.2
v 0.4 2.2 -0.3
v 0.6 2.2 -0.3
v 0 2.2 -0.4
v 0.1 2.2 -0.4
v 0.3 2.2 -0.4
v 0.4 2.2 -0.4
v 0.6 2.2 -0.4
v 0.7 2.2 -0.4
v 0.9 2.2 -0.4
v 1 2.2 -0.4
v 0 2.2 -0.6
v 0.1 2.2 -0.6
v 0.3 2.2 -0.6
v 0.4 2.2 -0.6
v 0.6 2.2 -0.6
v 0.7 2.2 -0.6
v 0.9 2.2 -0.6
v 1 2.2 -0.6
v 0.4 2.2 -0.7
v 0.6 2.2 -0.7
v 0 2.2 -0.8
v 0.2 2.2 -0.8
v 0.8 2.2 -0.8
v 1 2.2 -0.8
v 0.4 2.2 -0.9
v 0.6 2.2 -0.9
v 0 2.2 -1
v 0.2 2.2 -1
v 0.4 2.2 -1
v 0.6 2.2 -1
v 0.8 2.2 -1
v 1 2.2 -1

# faces
f 7/1/1 2/1/1 1/1/1
f 8/3/1 3/3/1 2/3/1
f 8/1/1 2/1/1 7/1/1
f 9/2/1 4/2/1 3/2/1
f 9/3/1 3/3/1 8/3/1
f 10/3/1 5/3/1 4/3/1
f 10/2/1 4/2/1 9/2/1
f 11/1/1 6/1/1 5/1/1
f 11/3/1 5/3/1 10/3/1
f 12/1/1 6/1/1 11/1/1
f 13/1/2 14/1/2 19/1/2
f 14/3/2 15/3/2 20/3/2
f 19/1/2 14/1/2 20/1/2
f 15/2/2 16/2/2 21/2/2
f 20/3/2 15/3/2 21/3/2
f 16/3/2 17/3/2 22/3/2
f 21/2/2 16/2/2 22/2/2
f 17/1/2 18/1/2 23/1/2
f 22/3/2 17/3/2 23/3/2
f 23/1/2 18/1/2 24/1/2
f 27/1/3 26/1/3 25/1/3
f 28/1/3 26/1/3 27/1/3
f 29/3/3 28/3/3 27/3/3
f 30/3/3 28/3/3 29/3/3
f 31/2/3 30/2/3 29/2/3
f 32/2/3 30/2/3 31/2/3
f 33/3/3 32/3/3 31/3/3
f 34/3/3 32/3/3 33/3/3
f 35/1/3 34/1/3 33/1/3
f 36/1/3 34/1/3 35/1/3
f 37/1/4 38/1/4 39/1/4
f 39/1/4 38/1/4 40/1/4
f 39/3/4 40/3/4 41/3/4
f 41/3/4 40/3/4 42/3/4
f 41/2/4 42/2/4 43/2/4
f 43/2/4 42/2/4 44/2/4
f 43/3/4 44/3/4 45/3/4
f 45/3/4 44/3/4 46/3/4
f 45/1/4 46/1/4 47/1/4
f 47/1/4 46/1/4 48/1/4
f 55/3/5 51/3/5 50/3/5
f 55/2/5 52/2/5 51/2/5
f 56/3/5 53/3/5 52/3/5
f 56/2/5 52/2/5 55/2/5
f 57/1/5 50/1/5 49/1/5
f 58/3/5 55/3/5 50/3/5
f 58/1/5 50/1/5 57/1/5
f 58/3/5 56/3/5 55/3/5
f 59/3/5 53/3/5 56/3/5
f 59/3/5 56/3/5 58/3/5
f 59/1/5 54/1/5 53/1/5
f 60/1/5 54/1/5 59/1/5
f 61/3/5 58/3/5 57/3/5
f 61/3/5 59/3/5 58/3/5
f 61/3/5 60/3/5 59/3/5
f 62/3/5 60/3/5 61/3/5
f 63/3/5 61/3/5 57/3/5
f 64/3/5 61/3/5 63/3/5
f 65/3/5 61/3/5 64/3/5
f 66/2/5 62/2/5 61/2/5
f 66/3/5 61/3/5 65/3/5
f 67/3/5 60/3/5 62/3/5
f 67/2/5 62/2/5 66/2/5
f 68/3/5 60/3/5 67/3/5
f 69/3/5 60/3/5 68/3/5
f 70/3/5 60/3/5 69/3/5
f 71/2/5 64/2/5 63/2/5
f 72/3/5 65/3/5 64/3/5
f 72/2/5 64/2/5 71/2/5
f 73/2/5 66/2/5 65/2/5
f 73/3/5 65/3/5 72/3/5
f 74/3/5 67/3/5 66/3/5
f 74/2/5 66/2/5 73/2/5
f 75/2/5 68/2/5 67/2/5
f 75/3/5 67/3/5 74/3/5
f 76/3/5 69/3/5 68/3/5
f 76/2/5 68/2/5 75/2/5
f 77/2/5 70/2/5 69/2/5
f 77/3/5 69/3/5 76/3/5
f 78/2/5 70/2/5 77/2/5
f 79/3/5 72/3/5 71/3/5
f 79/3/5 73/3/5 72/3/5
f 79/3/5 74/3/5 73/3/5
f 79/2/5 75/2/5 74/2/5
f 80/3/5 78/3/5 77/3/5
f 80/2/5 75/2/5 79/2/5
f 80/3/5 77/3/5 76/3/5
f 80/3/5 76/3/5 75/3/5
f 81/3/5 79/3/5 71/3/5
f 81/3/5 80/3/5 79/3/5
f 82/3/5 80/3/5 81/3/5
f 83/3/5 78/3/5 80/3/5
f 83/3/5 80/3/5 82/3/5
f 84/3/5 78/3/5 83/3/5
f 85/3/5 83/3/5 82/3/5
f 86/3/5 83/3/5 85/3/5
f 87/1/5 82/1/5 81/1/5
f 88/3/5 85/3/5 82/3/5
f 88/1/5 82/1/5 87/1/5
f 89/2/5 86/2/5 85/2/5
f 89/3/5 85/3/5 88/3/5
f 90/3/5 83/3/5 86/3/5
f 90/2/5 86/2/5 89/2/5
f 91/1/5 84/1/5 83/1/5
f 91/3/5 83/3/5 90/3/5
f 92/1/5 84/1/5 91/1/5
f 94/3/6 95/3/6 99/3/6
f 95/2/6 96/2/6 99/2/6
f 96/3/6 97/3/6 100/3/6
f 99/2/6 96/2/6 100/2/6
f 93/1/6 94/1/6 101/1/6
f 94/3/6 99/3/6 102/3/6
f 101/1/6 94/1/6 102/1/6
f 99/3/6 100/3/6 102/3/6
f 100/3/6 97/3/6 103/3/6
f 102/3/6 100/3/6 103/3/6
f 97/1/6 98/1/6 103/1/6
f 103/1/6 98/1/6 104/1/6
f 101/3/6 102/3/6 105/3/6
f 102/3/6 103/3/6 105/3/6
f 103/3/6 104/3/6 105/3/6
f 105/3/6 104/3/6 106/3/6
f 101/3/6 105/3/6 107/3/6
f 107/3/6 105/3/6 108/3/6
f 108/3/6 105/3/6 109/3/6
f 105/2/6 106/2/6 110/2/6
f 109/3/6 105/3/6 110/3/6
f 106/3/6 104/3/6 111/3/6
f 110/2/6 106/2/6 111/2/6
f 111/3/6 104/3/6 112/3/6
f 112/3/6 104/3/6 113/3/6
f 113/3/6 104/3/6 114/3/6
f 107/2/6 108/2/6 115/2/6
f 108/3/6 109/3/6 116/3/6
f 115/2/6 108/2/6 116/2/6
f 109/2/6 110/2/6 117/2/6
f 116/3/6 109/3/6 117/3/6
f 110/3/6 111/3/6 118/3/6
f 117/2/6 110/2/6 118/2/6
f 111/2/6 112/2/6 119/2/6
f 118/3/6 111/3/6 119/3/6
f 112/3/6 113/3/6 120/3/6
f 119/2/6 112/2/6 120/2/6
f 113/2/6 114/2/6 121/2/6
f 120/3/6 113/3/6 121/3/6
f 121/2/6 114/2/6 122/2/6
f 115/3/6 116/3/6 123/3/6
f 116/3/6 117/3/6 123/3/6
f 117/3/6 118/3/6 123/3/6
f 118/2/6 119/2/6 123/2/6
f 121/3/6 122/3/6 124/3/6
f 123/2/6 119/2/6 124/2/6
f 120/3/6 121/3/6 124/3/6
f 119/3/6 120/3/6 124/3/6
f 115/3/6 123/3/6 125/3/6
f 123/3/6 124/3/6 125/3/6
f 125/3/6 124/3/6 126/3/6
f 124/3/6 122/3/6 127/3/6
f 126/3/6 124/3/6 127/3/6
f 127/3/6 122/3/6 128/3/6
f 126/3/6 127/3/6 129/3/6
f 129/3/6 127/3/6 130/3/6
f 125/1/6 126/1/6 131/1/6
f 126/3/6 129/3/6 132/3/6
f 131/1/6 126/1/6 132/1/6
f 129/2/6 130/2/6 133/2/6
f 132/3/6 129/3/6 133/3/6
f 130/3/6 127/3/6 134/3/6
f 133/2/6 130/2/6 134/2/6
f 127/1/6 128/1/6 135/1/6
f 134/3/6 127/3/6 135/3/6
f 135/1/6 128/1/6 136/1/6
