# MagicaVoxel @ Ephtracy

# group
o 

# material
mtllib zavod4.mtl
usemtl palette

# normals
vn -1 0 0
vn 1 0 0
vn 0 0 1
vn 0 0 -1
vn 0 -1 0
vn 0 1 0

# texcoords
vt 0.0175781 0.5
vt 0.533203 0.5
vt 0.841797 0.5
vt 0.923828 0.5
vt 0.958984 0.5

# verts
v 0 2.1 -0.1
v 0 2.1 -1
v 0 2.2 -0.1
v 0 2.2 -1
v 0 2.4 -0.1
v 0 2.4 -0.3
v 0 2.4 -0.9
v 0 2.5 -0.9
v 0 2.5 -1
v 0 2.6 -0.3
v 0 2.6 -0.6
v 0 3 -0.6
v 0 3 -1
v 0.1 2.1 0
v 0.1 2.1 -0.1
v 0.1 2.2 0
v 0.1 2.2 -0.1
v 0.1 2.4 0
v 0.1 2.4 -0.1
v 0.1 2.5 0
v 0.1 2.5 -0.1
v 0.1 2.6 -0.4
v 0.1 2.6 -0.5
v 0.1 2.7 -0.4
v 0.1 2.7 -0.5
v 0.1 2.8 -0.4
v 0.1 2.8 -0.5
v 0.1 2.9 -0.4
v 0.1 2.9 -0.5
v 0.1 3 -0.6
v 0.1 3 -1
v 0.1 3.1 -0.6
v 0.1 3.1 -1
v 0.3 2.4 0
v 0.3 2.4 -0.1
v 0.3 2.5 0
v 0.3 2.5 -0.1
v 0.6 2.2 0
v 0.6 2.2 -0.1
v 0.6 2.4 0
v 0.6 2.4 -0.1
v 0.6 2.5 0
v 0.6 2.5 -0.1
v 0.7 2.2 -0.3
v 0.7 2.2 -0.6
v 0.7 2.6 -0.3
v 0.7 2.6 -0.6
v 0.7 3 -0.6
v 0.7 3 -1
v 0.7 3.1 -0.6
v 0.7 3.1 -1
v 0.8 2.4 0
v 0.8 2.4 -0.1
v 0.8 2.5 0
v 0.8 2.5 -0.1
v 0.8 2.6 -0.4
v 0.8 2.6 -0.5
v 0.8 2.7 -0.4
v 0.8 2.7 -0.5
v 0.8 2.8 -0.4
v 0.8 2.8 -0.5
v 0.8 2.9 -0.4
v 0.8 2.9 -0.5
v 0.9 2.2 -0.1
v 0.9 2.2 -0.3
v 0.9 2.4 -0.1
v 0.9 2.4 -0.3
v 0.1 2.2 -0.1
v 0.1 2.2 -0.3
v 0.1 2.4 -0.1
v 0.1 2.4 -0.3
v 0.2 2.4 0
v 0.2 2.4 -0.1
v 0.2 2.5 0
v 0.2 2.5 -0.1
v 0.2 2.6 -0.4
v 0.2 2.6 -0.5
v 0.2 2.7 -0.4
v 0.2 2.7 -0.5
v 0.2 2.8 -0.4
v 0.2 2.8 -0.5
v 0.2 2.9 -0.4
v 0.2 2.9 -0.5
v 0.3 2.2 -0.3
v 0.3 2.2 -0.6
v 0.3 2.6 -0.3
v 0.3 2.6 -0.6
v 0.3 3 -0.6
v 0.3 3 -1
v 0.3 3.1 -0.6
v 0.3 3.1 -1
v 0.4 2.2 0
v 0.4 2.2 -0.1
v 0.4 2.4 0
v 0.4 2.4 -0.1
v 0.4 2.5 0
v 0.4 2.5 -0.1
v 0.7 2.4 0
v 0.7 2.4 -0.1
v 0.7 2.5 0
v 0.7 2.5 -0.1
v 0.9 2.1 0
v 0.9 2.1 -0.1
v 0.9 2.2 0
v 0.9 2.2 -0.1
v 0.9 2.4 0
v 0.9 2.4 -0.1
v 0.9 2.5 0
v 0.9 2.5 -0.1
v 0.9 2.6 -0.4
v 0.9 2.6 -0.5
v 0.9 2.7 -0.4
v 0.9 2.7 -0.5
v 0.9 2.8 -0.4
v 0.9 2.8 -0.5
v 0.9 2.9 -0.4
v 0.9 2.9 -0.5
v 0.9 3 -0.6
v 0.9 3 -1
v 0.9 3.1 -0.6
v 0.9 3.1 -1
v 1 2.1 -0.1
v 1 2.1 -1
v 1 2.2 -0.1
v 1 2.2 -1
v 1 2.4 -0.1
v 1 2.4 -0.3
v 1 2.4 -0.9
v 1 2.5 -0.9
v 1 2.5 -1
v 1 2.6 -0.3
v 1 2.6 -0.6
v 1 3 -0.6
v 1 3 -1
v 0.1 2.1 0
v 0.1 2.2 0
v 0.1 2.4 0
v 0.1 2.5 0
v 0.2 2.2 0
v 0.2 2.4 0
v 0.2 2.5 0
v 0.3 2.2 0
v 0.3 2.4 0
v 0.3 2.5 0
v 0.4 2.2 0
v 0.4 2.4 0
v 0.4 2.5 0
v 0.6 2.2 0
v 0.6 2.4 0
v 0.6 2.5 0
v 0.7 2.2 0
v 0.7 2.4 0
v 0.7 2.5 0
v 0.8 2.2 0
v 0.8 2.4 0
v 0.8 2.5 0
v 0.9 2.1 0
v 0.9 2.2 0
v 0.9 2.4 0
v 0.9 2.5 0
v 0 2.1 -0.1
v 0 2.2 -0.1
v 0 2.4 -0.1
v 0.1 2.1 -0.1
v 0.1 2.2 -0.1
v 0.1 2.4 -0.1
v 0.9 2.1 -0.1
v 0.9 2.2 -0.1
v 0.9 2.4 -0.1
v 1 2.1 -0.1
v 1 2.2 -0.1
v 1 2.4 -0.1
v 0 2.4 -0.3
v 0 2.6 -0.3
v 0.1 2.2 -0.3
v 0.1 2.4 -0.3
v 0.3 2.2 -0.3
v 0.3 2.6 -0.3
v 0.7 2.2 -0.3
v 0.7 2.6 -0.3
v 0.9 2.2 -0.3
v 0.9 2.4 -0.3
v 1 2.4 -0.3
v 1 2.6 -0.3
v 0.1 2.6 -0.4
v 0.1 2.7 -0.4
v 0.1 2.8 -0.4
v 0.1 2.9 -0.4
v 0.2 2.6 -0.4
v 0.2 2.7 -0.4
v 0.2 2.8 -0.4
v 0.2 2.9 -0.4
v 0.8 2.6 -0.4
v 0.8 2.7 -0.4
v 0.8 2.8 -0.4
v 0.8 2.9 -0.4
v 0.9 2.6 -0.4
v 0.9 2.7 -0.4
v 0.9 2.8 -0.4
v 0.9 2.9 -0.4
v 0 2.6 -0.6
v 0 3 -0.6
v 0.1 2.7 -0.6
v 0.1 2.9 -0.6
v 0.1 3 -0.6
v 0.1 3.1 -0.6
v 0.2 2.7 -0.6
v 0.2 2.9 -0.6
v 0.3 2.2 -0.6
v 0.3 2.6 -0.6
v 0.3 2.7 -0.6
v 0.3 2.9 -0.6
v 0.3 3 -0.6
v 0.3 3.1 -0.6
v 0.4 2.2 -0.6
v 0.4 2.5 -0.6
v 0.6 2.2 -0.6
v 0.6 2.5 -0.6
v 0.7 2.2 -0.6
v 0.7 2.6 -0.6
v 0.7 2.7 -0.6
v 0.7 2.9 -0.6
v 0.7 3 -0.6
v 0.7 3.1 -0.6
v 0.8 2.7 -0.6
v 0.8 2.9 -0.6
v 0.9 2.7 -0.6
v 0.9 2.9 -0.6
v 0.9 3 -0.6
v 0.9 3.1 -0.6
v 1 2.6 -0.6
v 1 3 -0.6
v 0.1 2.2 -0.1
v 0.1 2.4 -0.1
v 0.1 2.5 -0.1
v 0.2 2.2 -0.1
v 0.2 2.4 -0.1
v 0.2 2.5 -0.1
v 0.3 2.2 -0.1
v 0.3 2.4 -0.1
v 0.3 2.5 -0.1
v 0.4 2.2 -0.1
v 0.4 2.4 -0.1
v 0.4 2.5 -0.1
v 0.6 2.2 -0.1
v 0.6 2.4 -0.1
v 0.6 2.5 -0.1
v 0.7 2.2 -0.1
v 0.7 2.4 -0.1
v 0.7 2.5 -0.1
v 0.8 2.2 -0.1
v 0.8 2.4 -0.1
v 0.8 2.5 -0.1
v 0.9 2.2 -0.1
v 0.9 2.4 -0.1
v 0.9 2.5 -0.1
v 0.1 2.6 -0.5
v 0.1 2.7 -0.5
v 0.1 2.8 -0.5
v 0.1 2.9 -0.5
v 0.2 2.6 -0.5
v 0.2 2.7 -0.5
v 0.2 2.8 -0.5
v 0.2 2.9 -0.5
v 0.8 2.6 -0.5
v 0.8 2.7 -0.5
v 0.8 2.8 -0.5
v 0.8 2.9 -0.5
v 0.9 2.6 -0.5
v 0.9 2.7 -0.5
v 0.9 2.8 -0.5
v 0.9 2.9 -0.5
v 0 2.1 -1
v 0 2.2 -1
v 0 2.5 -1
v 0 3 -1
v 0.1 2.4 -1
v 0.1 2.5 -1
v 0.1 3 -1
v 0.1 3.1 -1
v 0.3 2.2 -1
v 0.3 2.4 -1
v 0.3 3 -1
v 0.3 3.1 -1
v 0.7 2.2 -1
v 0.7 2.4 -1
v 0.7 3 -1
v 0.7 3.1 -1
v 0.9 2.4 -1
v 0.9 2.5 -1
v 0.9 3 -1
v 0.9 3.1 -1
v 1 2.1 -1
v 1 2.2 -1
v 1 2.5 -1
v 1 3 -1
v 0.1 2.1 0
v 0.9 2.1 0
v 0 2.1 -0.1
v 0.1 2.1 -0.1
v 0.9 2.1 -0.1
v 1 2.1 -0.1
v 0 2.1 -1
v 1 2.1 -1
v 0.4 2.2 0
v 0.6 2.2 0
v 0.1 2.2 -0.1
v 0.2 2.2 -0.1
v 0.3 2.2 -0.1
v 0.4 2.2 -0.1
v 0.6 2.2 -0.1
v 0.7 2.2 -0.1
v 0.8 2.2 -0.1
v 0.9 2.2 -0.1
v 0.1 2.2 -0.3
v 0.3 2.2 -0.3
v 0.7 2.2 -0.3
v 0.9 2.2 -0.3
v 0.3 2.2 -0.6
v 0.4 2.2 -0.6
v 0.6 2.2 -0.6
v 0.7 2.2 -0.6
v 0.2 2.4 0
v 0.3 2.4 0
v 0.7 2.4 0
v 0.8 2.4 0
v 0 2.4 -0.1
v 0.1 2.4 -0.1
v 0.2 2.4 -0.1
v 0.3 2.4 -0.1
v 0.7 2.4 -0.1
v 0.8 2.4 -0.1
v 0.9 2.4 -0.1
v 1 2.4 -0.1
v 0 2.4 -0.3
v 0.1 2.4 -0.3
v 0.9 2.4 -0.3
v 1 2.4 -0.3
v 0.1 2.5 0
v 0.2 2.5 0
v 0.3 2.5 0
v 0.4 2.5 0
v 0.6 2.5 0
v 0.7 2.5 0
v 0.8 2.5 0
v 0.9 2.5 0
v 0.1 2.5 -0.1
v 0.2 2.5 -0.1
v 0.3 2.5 -0.1
v 0.4 2.5 -0.1
v 0.6 2.5 -0.1
v 0.7 2.5 -0.1
v 0.8 2.5 -0.1
v 0.9 2.5 -0.1
v 0 2.6 -0.3
v 0.3 2.6 -0.3
v 0.7 2.6 -0.3
v 1 2.6 -0.3
v 0.1 2.6 -0.4
v 0.2 2.6 -0.4
v 0.8 2.6 -0.4
v 0.9 2.6 -0.4
v 0.1 2.6 -0.5
v 0.2 2.6 -0.5
v 0.8 2.6 -0.5
v 0.9 2.6 -0.5
v 0 2.6 -0.6
v 0.3 2.6 -0.6
v 0.7 2.6 -0.6
v 1 2.6 -0.6
v 0.1 2.9 -0.4
v 0.2 2.9 -0.4
v 0.8 2.9 -0.4
v 0.9 2.9 -0.4
v 0.1 2.9 -0.5
v 0.2 2.9 -0.5
v 0.8 2.9 -0.5
v 0.9 2.9 -0.5
v 0 3 -0.6
v 0.1 3 -0.6
v 0.3 3 -0.6
v 0.7 3 -0.6
v 0.9 3 -0.6
v 1 3 -0.6
v 0 3 -1
v 0.1 3 -1
v 0.3 3 -1
v 0.7 3 -1
v 0.9 3 -1
v 1 3 -1
v 0.1 3.1 -0.6
v 0.3 3.1 -0.6
v 0.7 3.1 -0.6
v 0.9 3.1 -0.6
v 0.1 3.1 -1
v 0.3 3.1 -1
v 0.7 3.1 -1
v 0.9 3.1 -1

# faces
f 3/1/1 2/1/1 1/1/1
f 4/1/1 2/1/1 3/1/1
f 5/5/1 4/5/1 3/5/1
f 6/5/1 4/5/1 5/5/1
f 7/5/1 4/5/1 6/5/1
f 8/5/1 4/5/1 7/5/1
f 8/1/1 7/1/1 6/1/1
f 9/5/1 4/5/1 8/5/1
f 10/1/1 8/1/1 6/1/1
f 10/1/1 9/1/1 8/1/1
f 11/1/1 9/1/1 10/1/1
f 12/1/1 9/1/1 11/1/1
f 13/1/1 9/1/1 12/1/1
f 16/1/1 15/1/1 14/1/1
f 17/1/1 15/1/1 16/1/1
f 18/3/1 17/3/1 16/3/1
f 19/3/1 17/3/1 18/3/1
f 20/5/1 19/5/1 18/5/1
f 21/5/1 19/5/1 20/5/1
f 24/3/1 23/3/1 22/3/1
f 25/3/1 23/3/1 24/3/1
f 26/5/1 25/5/1 24/5/1
f 27/5/1 25/5/1 26/5/1
f 28/3/1 27/3/1 26/3/1
f 29/3/1 27/3/1 28/3/1
f 32/3/1 31/3/1 30/3/1
f 33/3/1 31/3/1 32/3/1
f 36/5/1 35/5/1 34/5/1
f 37/5/1 35/5/1 36/5/1
f 40/3/1 39/3/1 38/3/1
f 41/3/1 39/3/1 40/3/1
f 42/5/1 41/5/1 40/5/1
f 43/5/1 41/5/1 42/5/1
f 46/1/1 45/1/1 44/1/1
f 47/1/1 45/1/1 46/1/1
f 50/3/1 49/3/1 48/3/1
f 51/3/1 49/3/1 50/3/1
f 54/5/1 53/5/1 52/5/1
f 55/5/1 53/5/1 54/5/1
f 58/3/1 57/3/1 56/3/1
f 59/3/1 57/3/1 58/3/1
f 60/5/1 59/5/1 58/5/1
f 61/5/1 59/5/1 60/5/1
f 62/3/1 61/3/1 60/3/1
f 63/3/1 61/3/1 62/3/1
f 66/5/1 65/5/1 64/5/1
f 67/5/1 65/5/1 66/5/1
f 68/5/2 69/5/2 70/5/2
f 70/5/2 69/5/2 71/5/2
f 72/5/2 73/5/2 74/5/2
f 74/5/2 73/5/2 75/5/2
f 76/3/2 77/3/2 78/3/2
f 78/3/2 77/3/2 79/3/2
f 78/5/2 79/5/2 80/5/2
f 80/5/2 79/5/2 81/5/2
f 80/3/2 81/3/2 82/3/2
f 82/3/2 81/3/2 83/3/2
f 84/1/2 85/1/2 86/1/2
f 86/1/2 85/1/2 87/1/2
f 88/3/2 89/3/2 90/3/2
f 90/3/2 89/3/2 91/3/2
f 92/3/2 93/3/2 94/3/2
f 94/3/2 93/3/2 95/3/2
f 94/5/2 95/5/2 96/5/2
f 96/5/2 95/5/2 97/5/2
f 98/5/2 99/5/2 100/5/2
f 100/5/2 99/5/2 101/5/2
f 102/1/2 103/1/2 104/1/2
f 104/1/2 103/1/2 105/1/2
f 104/3/2 105/3/2 106/3/2
f 106/3/2 105/3/2 107/3/2
f 106/5/2 107/5/2 108/5/2
f 108/5/2 107/5/2 109/5/2
f 110/3/2 111/3/2 112/3/2
f 112/3/2 111/3/2 113/3/2
f 112/5/2 113/5/2 114/5/2
f 114/5/2 113/5/2 115/5/2
f 114/3/2 115/3/2 116/3/2
f 116/3/2 115/3/2 117/3/2
f 118/3/2 119/3/2 120/3/2
f 120/3/2 119/3/2 121/3/2
f 122/1/2 123/1/2 124/1/2
f 124/1/2 123/1/2 125/1/2
f 124/5/2 125/5/2 126/5/2
f 126/5/2 125/5/2 127/5/2
f 127/5/2 125/5/2 128/5/2
f 128/5/2 125/5/2 129/5/2
f 127/1/2 128/1/2 129/1/2
f 129/5/2 125/5/2 130/5/2
f 127/1/2 129/1/2 131/1/2
f 129/1/2 130/1/2 131/1/2
f 131/1/2 130/1/2 132/1/2
f 132/1/2 130/1/2 133/1/2
f 133/1/2 130/1/2 134/1/2
f 139/1/3 136/1/3 135/1/3
f 139/3/3 137/3/3 136/3/3
f 140/5/3 138/5/3 137/5/3
f 140/3/3 137/3/3 139/3/3
f 141/5/3 138/5/3 140/5/3
f 142/1/3 139/1/3 135/1/3
f 142/5/3 140/5/3 139/5/3
f 143/5/3 140/5/3 142/5/3
f 145/1/3 142/1/3 135/1/3
f 145/3/3 143/3/3 142/3/3
f 146/5/3 144/5/3 143/5/3
f 146/3/3 143/3/3 145/3/3
f 147/5/3 144/5/3 146/5/3
f 148/1/3 145/1/3 135/1/3
f 151/1/3 148/1/3 135/1/3
f 151/3/3 149/3/3 148/3/3
f 152/5/3 150/5/3 149/5/3
f 152/3/3 149/3/3 151/3/3
f 153/5/3 150/5/3 152/5/3
f 154/1/3 151/1/3 135/1/3
f 154/5/3 152/5/3 151/5/3
f 155/5/3 152/5/3 154/5/3
f 157/1/3 154/1/3 135/1/3
f 158/3/3 155/3/3 154/3/3
f 158/1/3 154/1/3 157/1/3
f 159/5/3 156/5/3 155/5/3
f 159/3/3 155/3/3 158/3/3
f 160/5/3 156/5/3 159/5/3
f 164/1/3 162/1/3 161/1/3
f 165/5/3 163/5/3 162/5/3
f 165/1/3 162/1/3 164/1/3
f 166/5/3 163/5/3 165/5/3
f 170/1/3 168/1/3 167/1/3
f 171/5/3 169/5/3 168/5/3
f 171/1/3 168/1/3 170/1/3
f 172/5/3 169/5/3 171/5/3
f 176/1/3 174/1/3 173/1/3
f 177/1/3 176/1/3 175/1/3
f 178/1/3 174/1/3 176/1/3
f 178/1/3 176/1/3 177/1/3
f 181/1/3 180/1/3 179/1/3
f 182/1/3 180/1/3 181/1/3
f 183/1/3 180/1/3 182/1/3
f 184/1/3 180/1/3 183/1/3
f 189/3/3 186/3/3 185/3/3
f 190/5/3 187/5/3 186/5/3
f 190/3/3 186/3/3 189/3/3
f 191/3/3 188/3/3 187/3/3
f 191/5/3 187/5/3 190/5/3
f 192/3/3 188/3/3 191/3/3
f 197/3/3 194/3/3 193/3/3
f 198/5/3 195/5/3 194/5/3
f 198/3/3 194/3/3 197/3/3
f 199/3/3 196/3/3 195/3/3
f 199/5/3 195/5/3 198/5/3
f 200/3/3 196/3/3 199/3/3
f 203/1/3 202/1/3 201/1/3
f 204/1/3 202/1/3 203/1/3
f 205/1/3 202/1/3 204/1/3
f 207/1/3 203/1/3 201/1/3
f 207/4/3 204/4/3 203/4/3
f 208/1/3 205/1/3 204/1/3
f 208/4/3 204/4/3 207/4/3
f 210/1/3 207/1/3 201/1/3
f 210/1/3 208/1/3 207/1/3
f 211/1/3 208/1/3 210/1/3
f 212/1/3 205/1/3 208/1/3
f 212/1/3 208/1/3 211/1/3
f 213/3/3 206/3/3 205/3/3
f 213/1/3 205/1/3 212/1/3
f 214/3/3 206/3/3 213/3/3
f 215/1/3 211/1/3 210/1/3
f 215/1/3 210/1/3 209/1/3
f 216/1/3 211/1/3 215/1/3
f 217/2/3 216/2/3 215/2/3
f 218/1/3 211/1/3 216/1/3
f 218/2/3 216/2/3 217/2/3
f 219/1/3 218/1/3 217/1/3
f 220/1/3 211/1/3 218/1/3
f 220/1/3 218/1/3 219/1/3
f 221/4/3 212/4/3 211/4/3
f 221/1/3 211/1/3 220/1/3
f 222/1/3 213/1/3 212/1/3
f 222/4/3 212/4/3 221/4/3
f 223/1/3 213/1/3 222/1/3
f 225/1/3 221/1/3 220/1/3
f 225/1/3 223/1/3 222/1/3
f 225/1/3 222/1/3 221/1/3
f 226/1/3 223/1/3 225/1/3
f 227/1/3 225/1/3 220/1/3
f 227/4/3 226/4/3 225/4/3
f 228/1/3 223/1/3 226/1/3
f 228/4/3 226/4/3 227/4/3
f 229/3/3 224/3/3 223/3/3
f 229/1/3 223/1/3 228/1/3
f 230/3/3 224/3/3 229/3/3
f 231/1/3 228/1/3 227/1/3
f 231/1/3 227/1/3 220/1/3
f 231/1/3 229/1/3 228/1/3
f 232/1/3 229/1/3 231/1/3
f 233/3/4 234/3/4 236/3/4
f 234/5/4 235/5/4 237/5/4
f 236/3/4 234/3/4 237/3/4
f 237/5/4 235/5/4 238/5/4
f 236/5/4 237/5/4 239/5/4
f 239/5/4 237/5/4 240/5/4
f 239/3/4 240/3/4 242/3/4
f 240/5/4 241/5/4 243/5/4
f 242/3/4 240/3/4 243/3/4
f 243/5/4 241/5/4 244/5/4
f 245/3/4 246/3/4 248/3/4
f 246/5/4 247/5/4 249/5/4
f 248/3/4 246/3/4 249/3/4
f 249/5/4 247/5/4 250/5/4
f 248/5/4 249/5/4 251/5/4
f 251/5/4 249/5/4 252/5/4
f 251/3/4 252/3/4 254/3/4
f 252/5/4 253/5/4 255/5/4
f 254/3/4 252/3/4 255/3/4
f 255/5/4 253/5/4 256/5/4
f 257/3/4 258/3/4 261/3/4
f 258/5/4 259/5/4 262/5/4
f 261/3/4 258/3/4 262/3/4
f 259/3/4 260/3/4 263/3/4
f 262/5/4 259/5/4 263/5/4
f 263/3/4 260/3/4 264/3/4
f 265/3/4 266/3/4 269/3/4
f 266/5/4 267/5/4 270/5/4
f 269/3/4 266/3/4 270/3/4
f 267/3/4 268/3/4 271/3/4
f 270/5/4 267/5/4 271/5/4
f 271/3/4 268/3/4 272/3/4
f 274/5/4 275/5/4 277/5/4
f 275/1/4 276/1/4 278/1/4
f 277/5/4 275/5/4 278/5/4
f 278/1/4 276/1/4 279/1/4
f 273/1/4 274/1/4 281/1/4
f 274/5/4 277/5/4 281/5/4
f 278/1/4 279/1/4 282/1/4
f 281/5/4 277/5/4 282/5/4
f 277/1/4 278/1/4 282/1/4
f 279/3/4 280/3/4 283/3/4
f 282/1/4 279/1/4 283/1/4
f 283/3/4 280/3/4 284/3/4
f 281/1/4 282/1/4 285/1/4
f 273/1/4 281/1/4 285/1/4
f 282/1/4 283/1/4 285/1/4
f 285/1/4 283/1/4 286/1/4
f 286/1/4 283/1/4 287/1/4
f 285/5/4 286/5/4 289/5/4
f 286/1/4 287/1/4 289/1/4
f 289/1/4 287/1/4 290/1/4
f 287/3/4 288/3/4 291/3/4
f 290/1/4 287/1/4 291/1/4
f 291/3/4 288/3/4 292/3/4
f 273/1/4 285/1/4 293/1/4
f 289/5/4 290/5/4 294/5/4
f 293/1/4 285/1/4 294/1/4
f 285/5/4 289/5/4 294/5/4
f 290/1/4 291/1/4 295/1/4
f 294/5/4 290/5/4 295/5/4
f 295/1/4 291/1/4 296/1/4
f 300/1/5 298/1/5 297/1/5
f 301/1/5 298/1/5 300/1/5
f 303/1/5 300/1/5 299/1/5
f 303/1/5 302/1/5 301/1/5
f 303/1/5 301/1/5 300/1/5
f 304/1/5 302/1/5 303/1/5
f 305/1/6 306/1/6 310/1/6
f 310/1/6 306/1/6 311/1/6
f 308/1/6 309/1/6 315/1/6
f 313/1/6 314/1/6 315/1/6
f 312/1/6 313/1/6 315/1/6
f 311/1/6 312/1/6 315/1/6
f 310/1/6 311/1/6 315/1/6
f 309/1/6 310/1/6 315/1/6
f 307/1/6 308/1/6 315/1/6
f 315/1/6 314/1/6 316/1/6
f 316/1/6 314/1/6 317/1/6
f 317/1/6 314/1/6 318/1/6
f 316/1/6 317/1/6 319/1/6
f 319/1/6 317/1/6 320/1/6
f 320/1/6 317/1/6 321/1/6
f 321/1/6 317/1/6 322/1/6
f 323/5/6 324/5/6 329/5/6
f 329/5/6 324/5/6 330/5/6
f 325/5/6 326/5/6 331/5/6
f 331/5/6 326/5/6 332/5/6
f 327/5/6 328/5/6 335/5/6
f 335/5/6 328/5/6 336/5/6
f 333/5/6 334/5/6 337/5/6
f 337/5/6 334/5/6 338/5/6
f 339/5/6 340/5/6 347/5/6
f 347/5/6 340/5/6 348/5/6
f 341/5/6 342/5/6 349/5/6
f 349/5/6 342/5/6 350/5/6
f 343/5/6 344/5/6 351/5/6
f 351/5/6 344/5/6 352/5/6
f 345/5/6 346/5/6 353/5/6
f 353/5/6 346/5/6 354/5/6
f 355/1/6 356/1/6 359/1/6
f 359/1/6 356/1/6 360/1/6
f 357/1/6 358/1/6 361/1/6
f 361/1/6 358/1/6 362/1/6
f 355/1/6 359/1/6 363/1/6
f 360/1/6 356/1/6 364/1/6
f 357/1/6 361/1/6 365/1/6
f 362/1/6 358/1/6 366/1/6
f 355/1/6 363/1/6 367/1/6
f 363/1/6 364/1/6 367/1/6
f 364/1/6 356/1/6 368/1/6
f 367/1/6 364/1/6 368/1/6
f 365/1/6 366/1/6 369/1/6
f 357/1/6 365/1/6 369/1/6
f 366/1/6 358/1/6 370/1/6
f 369/1/6 366/1/6 370/1/6
f 371/3/6 372/3/6 375/3/6
f 375/3/6 372/3/6 376/3/6
f 373/3/6 374/3/6 377/3/6
f 377/3/6 374/3/6 378/3/6
f 379/1/6 380/1/6 385/1/6
f 385/1/6 380/1/6 386/1/6
f 381/1/6 382/1/6 387/1/6
f 387/1/6 382/1/6 388/1/6
f 383/1/6 384/1/6 389/1/6
f 389/1/6 384/1/6 390/1/6
f 391/3/6 392/3/6 395/3/6
f 395/3/6 392/3/6 396/3/6
f 393/3/6 394/3/6 397/3/6
f 397/3/6 394/3/6 398/3/6
